<?xml version="1.0" encoding="UTF-8" standalone="no"?>
<svg width="141px" height="253px" viewBox="0 0 141 253" version="1.1" xmlns="http://www.w3.org/2000/svg" xmlns:xlink="http://www.w3.org/1999/xlink" xmlns:sketch="http://www.bohemiancoding.com/sketch/ns">
    <!-- Generator: Sketch 3.0 (7573) - http://www.bohemiancoding.com/sketch -->
    <title>Untitled 3</title>
    <description>Created with Sketch.</description>
    <defs>
        <filter x="-50%" y="-50%" width="200%" height="200%" filterUnits="objectBoundingBox" id="filter-1">
            <feOffset dx="0" dy="2" in="SourceAlpha" result="shadowOffsetOuter1"></feOffset>
            <feGaussianBlur stdDeviation="2" in="shadowOffsetOuter1" result="shadowBlurOuter1"></feGaussianBlur>
            <feColorMatrix values="0 0 0 0 0   0 0 0 0 0   0 0 0 0 0  0 0 0 0.35 0" in="shadowBlurOuter1" type="matrix" result="shadowMatrixOuter1"></feColorMatrix>
            <feMerge>
                <feMergeNode in="shadowMatrixOuter1"></feMergeNode>
                <feMergeNode in="SourceGraphic"></feMergeNode>
            </feMerge>
        </filter>
    </defs>
    <g id="Page-1" stroke="none" stroke-width="1" fill="none" fill-rule="evenodd">
        <path d="M35.2439115,13.1854528 C33.5855663,13.1831398 31.5104679,14.3055432 30.6095319,15.6916687 L6.81463413,52.3010563 C5.91348213,53.6875141 5.18107606,56.1615824 5.17877358,57.8168284 L4.92098815,243.138048 C4.91867931,244.797867 6.26625368,246.145289 7.92182293,246.147587 L133.911726,246.322465 C135.571351,246.324769 136.918605,244.98652 136.920918,243.323472 L137.181855,55.6637288 C137.184161,54.0051268 136.38926,51.5767258 135.408127,50.2420995 L110.019146,15.7057332 C109.037237,14.370052 106.889864,13.2853836 105.238543,13.2830804 L35.2439115,13.1854528 L35.2439115,13.1854528 Z M63.8699837,40.7466903 C63.8753112,36.6960717 67.1632902,33.4166548 71.2127095,33.4227317 C75.2623538,33.4278342 78.5405714,36.7165626 78.5352439,40.7671813 C78.5303663,44.8158512 75.2426123,48.0942937 71.192968,48.0891912 C67.1435487,48.0831143 63.8651061,44.7953603 63.8699837,40.7466903 L63.8699837,40.7466903 Z" id="Shape" fill="#fcfcdc" filter="url(#filter-1)"></path>
        <path d="M49.7893918,17.5747571 L57.3353918,50.4707571 L57.3623918,50.4647571 C58.4653918,53.9847571 66.7403918,55.1107571 76.1183918,52.9597571 C85.4943918,50.8087571 92.4513918,46.1877571 91.9103918,42.5397571 L91.9363918,42.5337571 L84.3903918,9.63775712 L49.7893918,17.5747571 L49.7893918,17.5747571 Z M74.8833918,47.5767571 C70.9363918,48.4817571 67.0023918,46.0157571 66.0963918,42.0687571 C65.1913918,38.1217571 67.6573918,34.1867571 71.6043918,33.2817571 C75.5513918,32.3757571 79.4853918,34.8427571 80.3913918,38.7897571 C81.2963918,42.7367571 78.8303918,46.6707571 74.8833918,47.5767571 L74.8833918,47.5767571 Z" id="Shape" fill="#B0E4FF" sketch:type="MSShapeGroup" transform="translate(70.789392, 31.637757) rotate(13.000000) translate(-70.789392, -31.637757) "></path>
        <circle id="Oval" stroke="#000000" sketch:type="MSShapeGroup" transform="translate(60.489417, 130.258213) rotate(13.000000) translate(-70.489417, -140.258213) " cx="70.4894175" cy="140.258213" r="44"></circle>
        <circle id="Oval" stroke="#000000" sketch:type="MSShapeGroup" transform="translate(60.489417, 130.258213) rotate(13.000000) translate(-70.489417, -140.258213) " cx="70.4894175" cy="140.258213" r="40"></circle>
        <circle id="Oval" stroke="#000000" sketch:type="MSShapeGroup" transform="translate(80.489417, 145.258213) rotate(13.000000) translate(-70.489417, -140.258213) " cx="70.4894175" cy="140.258213" r="44"></circle>
        <circle id="Oval" stroke="#000000" sketch:type="MSShapeGroup" transform="translate(80.489417, 145.258213) rotate(13.000000) translate(-70.489417, -140.258213) " cx="70.4894175" cy="140.258213" r="40"></circle>
    </g>
</svg>